<?xml version="1.0" standalone="no"?>
<!DOCTYPE svg PUBLIC "-//W3C//DTD SVG 20010904//EN"
 "http://www.w3.org/TR/2001/REC-SVG-20010904/DTD/svg10.dtd">
<svg version="1.0" xmlns="http://www.w3.org/2000/svg"
 width="512.000000pt" height="512.000000pt" viewBox="0 0 512.000000 512.000000"
 preserveAspectRatio="xMidYMid meet">

<g transform="translate(0.000000,512.000000) scale(0.100000,-0.100000)"
fill="#000000" stroke="none">
<path d="M445 5111 c-11 -5 -29 -19 -40 -31 -19 -21 -20 -36 -20 -341 l0 -319
28 -27 c25 -26 35 -28 124 -33 l96 -5 118 -209 c65 -115 128 -220 139 -233
l21 -24 -58 -63 c-252 -276 -282 -673 -72 -940 130 -166 323 -254 537 -244
103 5 197 34 272 85 l35 23 5 -1339 c5 -1333 5 -1340 26 -1367 36 -49 95 -55
145 -15 l24 19 5 1274 5 1273 25 4 c14 2 215 0 447 -4 l423 -7 2 -1258 3
-1259 21 -28 c12 -16 36 -32 56 -37 48 -12 98 16 115 64 9 26 12 342 12 1278
l1 1242 170 0 169 0 3 -404 c3 -388 4 -405 23 -426 42 -47 105 -48 150 -2 l25
25 0 483 c0 266 3 484 8 484 4 0 23 -11 42 -23 155 -105 390 -115 576 -26 131
62 238 169 305 304 53 107 72 204 66 325 -12 198 -101 395 -241 529 l-35 34
23 31 c13 17 74 122 137 233 l114 203 97 0 c94 0 99 1 130 29 l33 29 0 322 0
322 -33 29 -32 29 -2103 -1 c-1156 0 -2111 -4 -2122 -8z m4095 -371 l0 -180
-1980 0 -1980 0 0 180 0 180 1980 0 1980 0 0 -180z m-330 -437 c-18 -32 -53
-95 -79 -140 l-46 -83 -1534 3 -1535 2 -46 80 c-25 44 -60 106 -78 138 l-32
57 1691 0 1691 0 -32 -57z m-335 -453 c257 -90 429 -352 398 -606 -23 -185
-142 -331 -317 -386 -90 -29 -204 -22 -281 17 -153 78 -228 268 -161 410 56
120 191 176 302 126 63 -29 92 -75 108 -172 15 -89 111 -118 173 -51 23 25 25
33 21 92 -13 185 -168 337 -352 348 -183 11 -348 -85 -431 -250 -19 -39 -35
-77 -35 -84 0 -12 -121 -14 -740 -14 -619 0 -740 2 -740 14 0 36 -74 156 -128
208 -99 94 -205 134 -336 126 -189 -12 -340 -162 -354 -350 -5 -66 -4 -68 28
-98 65 -60 155 -23 167 70 3 25 14 61 23 80 80 159 325 119 395 -64 24 -62 17
-166 -16 -232 -30 -63 -101 -133 -163 -164 -67 -32 -181 -39 -262 -15 -157 45
-283 174 -319 326 -69 296 140 617 445 684 54 11 269 13 1285 12 l1220 -2 70
-25z m-595 -910 l0 -140 -725 0 -725 0 0 133 c0 74 3 137 7 140 3 4 330 7 725
7 l718 0 0 -140z"/>
<path d="M2244 2440 c-47 -19 -69 -92 -44 -141 14 -25 62 -49 98 -49 57 0 104
76 83 132 -22 58 -78 82 -137 58z"/>
<path d="M2263 1992 c-35 -5 -71 -50 -78 -95 -3 -23 -5 -443 -3 -934 3 -887 3
-892 24 -920 12 -16 36 -32 56 -37 48 -12 98 16 115 64 9 26 12 264 12 933 1
930 0 948 -38 972 -20 12 -65 21 -88 17z"/>
<path d="M3317 1475 c-32 -33 -41 -68 -27 -110 33 -101 190 -75 190 31 0 46
-14 70 -50 89 -43 22 -83 19 -113 -10z"/>
<path d="M3318 1071 l-33 -29 0 -485 c0 -475 0 -486 21 -513 38 -52 103 -56
150 -9 l24 24 0 489 c0 482 0 489 -21 511 -45 48 -96 52 -141 12z"/>
</g>
</svg>
